<svg width="18" height="18" fill="none" xmlns="http://www.w3.org/2000/svg"><path d="M.5 5.224C.5 2.618 2.614.5 5.21.5h7.58c2.596 0 4.71 2.118 4.71 4.724v7.553c0 2.606-2.114 4.723-4.71 4.723H5.21C2.614 17.5.5 15.383.5 12.777V5.224zm12.29-4.177H5.21a4.146 4.146 0 00-4.166 4.177v7.553a4.145 4.145 0 004.166 4.176h7.58a4.146 4.146 0 004.168-4.176V5.224a4.147 4.147 0 00-4.168-4.177zm.461 3.13a.58.58 0 111.16 0 .58.58 0 11-1.16 0zM4.877 9c0-2.276 1.856-4.134 4.123-4.134 2.267 0 4.124 1.859 4.124 4.134 0 2.275-1.857 4.134-4.124 4.134-2.267 0-4.123-1.859-4.123-4.134zm7.704 0A3.572 3.572 0 009 5.413 3.571 3.571 0 005.42 9 3.571 3.571 0 009 12.587 3.572 3.572 0 0012.58 9z" fill="#5C5C50" stroke="#000"/></svg>